<?xml version="1.0" encoding="UTF-8"?>
<svg width="20px" height="20px" viewBox="0 0 20 20" version="1.1" xmlns="http://www.w3.org/2000/svg" xmlns:xlink="http://www.w3.org/1999/xlink">
    <title>设置 copy 2</title>
    <g id="Page-2" stroke="none" stroke-width="1" fill="none" fill-rule="evenodd">
        <g id="个人中心" transform="translate(-340.000000, -79.000000)">
            <g id="消息" transform="translate(340.000000, 79.000000)">
                <rect id="Rectangle" fill="#D8D8D8" opacity="0" x="0" y="0" width="20" height="20"></rect>
                <path d="M7.51252645,2.0001346 C7.81277942,1.99548746 8.10240594,2.11133807 8.31652708,2.3218777 C8.57870119,2.59453878 9.41066706,3.30066107 10.0748415,3.30066107 C10.7390159,3.30066107 11.5604948,2.60153009 11.822669,2.33935597 C12.0349684,2.13038405 12.3218014,2.01464445 12.6196783,2.01775572 C12.7617848,2.01760178 12.9023307,2.04737845 13.0321656,2.10514709 L13.0321656,2.10514709 L13.0531395,2.11563406 L15.1819933,3.29716542 L15.2029673,3.31114804 C15.5872293,3.58048542 15.7301732,4.08224736 15.5455414,4.51365333 C15.4337001,4.78139423 15.368668,5.06635301 15.3532804,5.35610616 C15.360019,6.57640691 16.3527054,7.56127683 17.5730213,7.55836875 L17.5730213,7.55836875 L17.64643,7.55836875 C18.0029868,7.55137744 18.3001175,7.85899508 18.3875089,8.34489111 C18.490041,8.89288904 18.5496481,9.44805338 18.5657873,10.0053272 C18.55077,10.5625073 18.492332,11.1176684 18.3910045,11.6657633 C18.3001175,12.1481637 18.0064825,12.4592769 17.6499257,12.4522856 L17.6499257,12.4522856 L17.5765169,12.4522856 C16.356201,12.4493776 15.3635147,13.4342475 15.3567761,14.6545482 C15.3703794,14.9445477 15.4354813,15.2298123 15.5490371,15.4970011 C15.7340261,15.9276237 15.5926611,16.4289595 15.2099586,16.6995063 L15.2099586,16.6995063 L15.1889846,16.713489 L13.0181829,17.9055073 L12.9937133,17.9194899 C12.8665438,17.9732473 12.7297762,18.0006008 12.591713,17.999946 C12.2873251,18.0029532 11.9951644,17.8802709 11.7842167,17.6608114 C11.518547,17.3706721 10.6725985,16.6191063 9.98745012,16.6191063 C9.30230176,16.6191063 8.44936196,17.3776634 8.20466612,17.6398375 C7.99515394,17.8567599 7.70572964,17.9780906 7.40416114,17.9754204 C7.26321901,17.9752146 7.1238877,17.945443 6.99516952,17.888029 L6.99516952,17.888029 L6.97419559,17.8810377 L4.87680264,16.7169846 L4.85582871,16.703002 C4.47111976,16.4322707 4.32949285,15.9285461 4.51675019,15.4970011 C4.62859149,15.2292602 4.69362358,14.9443014 4.70901121,14.6545482 C4.70323196,13.433845 3.70998114,12.448415 2.48927034,12.4522856 L2.48927034,12.4522856 L2.40187897,12.4522856 C2.05231348,12.4522856 1.76217412,12.144668 1.67478275,11.6657633 C1.57345526,11.1176684 1.51501725,10.5625073 1.5,10.0053272 C1.51501725,9.44814706 1.57345526,8.89298595 1.67478275,8.34489111 C1.76916543,7.86249073 2.05930479,7.55137744 2.41586159,7.55836875 L2.41586159,7.55836875 L2.48927034,7.55836875 C3.70958623,7.56127683 4.70227258,6.57640691 4.70901121,5.35610616 C4.69540787,5.06610671 4.63030598,4.78084205 4.51675019,4.51365333 C4.33176115,4.08303068 4.47312619,3.58169487 4.85582871,3.31114804 L4.85582871,3.31114804 L4.87680264,3.29366976 L7.08256089,2.09116447 L7.10703048,2.08067751 C7.23552244,2.02723839 7.37336543,1.99990745 7.51252645,2.0001346 Z M7.51252645,3.0035304 L5.44659439,4.12913129 C5.61351881,4.51866388 5.70600057,4.93601745 5.71925548,5.35960181 C5.71147574,7.06850988 4.36750297,8.47238543 2.66055743,8.5546304 C2.56979658,9.03570496 2.51603911,9.52302803 2.4997573,10.0123185 C2.51529324,10.5003333 2.56787936,10.9864627 2.65706178,11.4665109 C4.36400731,11.5487559 5.70798008,12.9526315 5.71575982,14.6615395 C5.70283675,15.086293 5.61035038,15.5048531 5.44309874,15.8955057 L5.44309874,15.8955057 L7.39716984,16.9756631 C7.4204958,16.976062 7.44347915,16.9700137 7.46358728,16.9581848 C7.69256268,16.7180104 7.94295548,16.4992093 8.21165743,16.3044973 C8.84437097,15.8465665 9.43513665,15.619349 9.98745012,15.619349 C10.5397636,15.619349 11.1375206,15.8535579 11.7702341,16.31848 C12.0401413,16.5169167 12.2916744,16.7392017 12.5217999,16.9826544 C12.5421278,16.9939462 12.5649645,16.9999558 12.5882174,17.0001327 L12.5882174,17.0001327 L14.6156972,15.8885144 C14.4483165,15.4991289 14.3558153,15.0816877 14.3430361,14.6580439 C14.3508159,12.9491358 15.6947887,11.5452603 17.4017342,11.4630153 C17.4919977,10.9831264 17.5445928,10.4969132 17.5590387,10.0088228 C17.5435027,9.52080808 17.4909166,9.0346786 17.4017342,8.5546304 C15.6947887,8.47238543 14.3508159,7.06850988 14.3430361,5.35960181 C14.3562911,4.93601745 14.4487728,4.51866388 14.6156972,4.12913129 L14.6156972,4.12913129 L12.6231739,3.02799999 C12.5891667,3.02823297 12.5626717,3.03545889 12.5392782,3.04897392 C12.3113702,3.27361209 12.0646037,3.47827625 11.801695,3.66071353 C11.1829641,4.09767039 10.6096767,4.31090534 10.0713458,4.31090534 C9.53301499,4.31090534 8.94924062,4.08718343 8.3305097,3.65022656 C8.06617156,3.46306425 7.81824979,3.25373408 7.58943086,3.02450433 C7.56603735,3.0109893 7.53954233,3.00376339 7.51252645,3.0035304 L7.51252645,3.0035304 Z M9.99444143,7.06197495 C11.6194143,7.05763128 12.941045,8.3698776 12.9482698,9.99484023 C12.9482698,11.6118716 11.6393836,12.9237844 10.0223567,12.9276199 C8.40532985,12.9314386 7.09028969,11.625736 7.08256018,10.0087229 C7.07489853,8.39170982 8.37745137,7.07354975 9.99444143,7.06197495 Z M10.0130513,8.05829777 C8.94532999,8.05575221 8.0769838,8.9178737 8.07183075,9.98558574 C8.06672337,11.0532978 8.9267449,11.9237238 9.99444143,11.9314381 C11.0672626,11.9338548 11.9397205,11.067651 11.9450169,9.99484023 C11.9450169,8.92711586 11.0807726,8.06085461 10.0130513,8.05829777 Z" id="形状结合" fill="#FAFAFA" fill-rule="nonzero"></path>
            </g>
        </g>
    </g>
</svg>